<?xml version="1.0" encoding="UTF-8" standalone="no"?>
<!-- Created with Inkscape (http://www.inkscape.org/) -->
<svg
   xmlns:dc="http://purl.org/dc/elements/1.1/"
   xmlns:cc="http://web.resource.org/cc/"
   xmlns:rdf="http://www.w3.org/1999/02/22-rdf-syntax-ns#"
   xmlns:svg="http://www.w3.org/2000/svg"
   xmlns="http://www.w3.org/2000/svg"
   xmlns:sodipodi="http://sodipodi.sourceforge.net/DTD/sodipodi-0.dtd"
   xmlns:inkscape="http://www.inkscape.org/namespaces/inkscape"
   id="svg2138"
   sodipodi:version="0.32"
   inkscape:version="0.44.1"
   width="40"
   height="26"
   version="1.0"
   sodipodi:docbase="C:\Documents and Settings\Owner\My Documents\Pictures\SVG work"
   sodipodi:docname="Aircraft silhouette.svg">
  <metadata
     id="metadata2143">
    <rdf:RDF>
      <cc:Work
         rdf:about="">
        <dc:format>image/svg+xml</dc:format>
        <dc:type
           rdf:resource="http://purl.org/dc/dcmitype/StillImage" />
      </cc:Work>
    </rdf:RDF>
  </metadata>
  <defs
     id="defs2141" />
  <sodipodi:namedview
     inkscape:window-height="573"
     inkscape:window-width="853"
     inkscape:pageshadow="2"
     inkscape:pageopacity="0.0"
     guidetolerance="10.0"
     gridtolerance="10.0"
     objecttolerance="10.0"
     borderopacity="1.0"
     bordercolor="#666666"
     pagecolor="#ffffff"
     id="base"
     width="40px"
     height="26px"
     inkscape:zoom="19.2"
     inkscape:cx="20"
     inkscape:cy="8.8333333"
     inkscape:window-x="238"
     inkscape:window-y="191"
     inkscape:current-layer="svg2138" />
  <path
     style="fill:black"
     d="M 6.00228,25.761661 C 5.7602636,25.658541 5.3525555,25.308512 5.096261,24.983827 C 4.1981451,23.846048 4.4623327,23.110045 7.9864173,16.932073 C 9.7333554,13.869576 11.128459,11.261267 11.086649,11.135835 C 11.044838,11.010414 9.3264279,10.231005 7.2679575,9.4038321 C 2.6784276,7.5595844 1.8966912,7.1632767 1.3969919,6.4274918 C 0.43721564,5.0142585 0.22033232,3.566705 0.87905048,2.9705889 C 1.5399475,2.3724912 3.0343704,1.9542082 4.0890627,2.0721296 C 4.632877,2.1329232 7.366855,3.1145575 10.227753,4.2762147 C 13.064757,5.4281722 15.556269,6.3706811 15.764444,6.3706811 C 15.972619,6.3706811 19.290976,4.9642841 23.138571,3.2453391 C 27.633069,1.2373965 30.382992,0.11999998 30.830069,0.11999998 C 31.612797,0.11999998 32.174648,0.71399291 32.174648,1.5415132 C 32.174648,2.2361415 31.380996,2.9333954 26.914991,6.1623322 C 24.775238,7.7093689 23.020553,9.0722018 23.015692,9.1908464 C 23.010828,9.3094811 25.127748,10.266396 27.719957,11.317324 L 32.433063,13.228092 L 33.50192,12.68842 C 34.08979,12.391596 34.835815,11.926925 35.159751,11.655811 C 35.87826,11.054463 36.14081,11.030764 36.558138,11.572854 C 36.723056,11.787078 36.829757,12.023773 36.829757,12.023773 C 36.829757,12.023773 37.705031,11.876713 37.705031,11.876713 C 39.344675,11.569119 40.146518,13.262868 38.869819,14.33713 C 38.541251,14.613594 37.978681,14.961463 37.619665,15.110178 C 36.974225,15.377517 36.966905,15.397273 36.966905,16.871587 C 36.966905,18.710009 36.68347,19.188075 35.499353,19.346895 C 35.027006,19.410245 34.5939,19.508718 34.536897,19.565726 C 34.479892,19.622725 34.257859,20.471973 34.043488,21.452934 C 33.464226,24.103648 32.953308,24.914374 31.86211,24.914374 C 30.677823,24.914374 30.461747,24.425697 30.291241,21.361684 C 30.208034,19.866484 30.105515,18.615876 30.063419,18.582546 C 29.706569,18.300048 18.163312,13.85305 17.924909,13.906224 C 17.753648,13.944428 15.662571,16.450589 13.278071,19.475477 C 10.893572,22.500365 8.7060155,25.151535 8.4168351,25.366978 C 7.7928163,25.831866 6.6178168,26.023927 6.00228,25.761661 z "
     id="path2147"
     sodipodi:nodetypes="csssssssssssssscccssssssssssssssssc" />
</svg>
