<svg width="187" height="170" viewBox="0 0 187 170" fill="none" xmlns="http://www.w3.org/2000/svg">
<path d="M16.9891 0C7.60602 0 0 7.64846 0 16.9966V76.4846V93.4811V152.969C0 162.317 7.60602 169.966 16.9891 169.966H93.4399H169.891C179.277 169.966 186.88 162.317 186.88 152.969V93.4811V76.4846V16.9966C186.88 7.64846 179.277 0 169.891 0H93.4399H16.9891Z" fill="#252525"/>
<path d="M16.9891 161.467C7.60602 161.467 0 153.819 0 144.471V84.9828V67.9861V42.4912H186.88V67.9861V84.9828V144.471C186.88 153.819 179.277 161.467 169.891 161.467H93.4399H16.9891Z" fill="#2E2E2E"/>
<path d="M25.4834 21.2456V30.5935L42.4724 50.9896L25.4834 70.5351V79.8841L50.967 50.9896L25.4834 21.2456Z" fill="#ECF0F1"/>
<path d="M16.9891 0C7.60602 0 0 7.60937 0 16.9966V76.4846V93.4811V118.976H186.88V93.4811V76.4846V16.9966C186.88 7.60937 179.277 0 169.891 0H93.4399H16.9891Z" fill="#2E2E2E"/>
<path d="M25.5098 26.5498V32.9343L42.5434 42.8659L25.5098 52.7973V59.1818L53.8992 42.8659L25.5098 26.5498ZM53.8992 54.2162V59.8912H82.2887V54.2162H53.8992Z" fill="#ECF0F1"/>
<path d="M112.324 62.0703C111.989 61.9275 111.425 61.4426 111.071 60.9929C109.828 59.4168 110.194 58.3972 115.069 49.839C117.486 45.5966 119.416 41.9834 119.358 41.8097C119.3 41.636 116.923 40.5563 114.075 39.4103C107.726 36.8556 106.644 36.3067 105.953 35.2873C104.625 33.3296 104.325 31.3244 105.236 30.4987C106.151 29.6701 108.218 29.0908 109.677 29.254C110.43 29.3383 114.212 30.6981 118.17 32.3074C122.095 33.903 125.542 35.2087 125.83 35.2087C126.118 35.2087 130.709 33.2605 136.032 30.8792C142.25 28.0977 146.054 26.5498 146.673 26.5498C147.756 26.5498 148.533 27.3726 148.533 28.519C148.533 29.4812 147.435 30.447 141.256 34.9201C138.296 37.063 135.869 38.951 135.862 39.1154C135.855 39.2796 138.784 40.6053 142.37 42.0612L148.89 44.7081L150.369 43.9604C151.182 43.5492 152.214 42.9056 152.663 42.53C153.657 41.6969 154.02 41.6642 154.597 42.4152C154.825 42.7117 154.973 43.0398 154.973 43.0398L156.184 42.8361C158.452 42.4098 159.562 44.7563 157.795 46.2443C157.341 46.6273 156.563 47.1091 156.066 47.3151C155.173 47.6856 155.163 47.713 155.163 49.7552C155.163 52.3019 154.771 52.9642 153.133 53.1842C152.479 53.2719 151.88 53.4084 151.801 53.4874C151.722 53.5662 151.415 54.7426 151.118 56.1016C150.317 59.7735 149.61 60.8966 148.1 60.8966C146.462 60.8966 146.163 60.2197 145.927 55.9752C145.812 53.904 145.67 52.1714 145.612 52.1253C145.118 51.7341 129.149 45.5738 128.819 45.6474C128.582 45.7003 125.689 49.1719 122.39 53.3623C119.091 57.5526 116.065 61.2251 115.665 61.5237C114.801 62.1677 113.176 62.4336 112.324 62.0703Z" fill="#ECF0F1"/>
<path d="M60.6442 95.9278C60.6442 97.843 60.122 99.3134 59.0778 100.339C58.0529 101.364 56.6122 101.877 54.7558 101.877H51.9712C49.6893 101.877 48.065 101.48 47.0981 100.687C46.1505 99.8937 45.6768 98.5202 45.6768 96.5662V81.215H54.4077C56.3802 81.215 57.8595 81.7083 58.8458 82.6949C59.8513 83.6816 60.3541 85.0745 60.3541 86.8737C60.3541 87.9184 60.0834 88.8084 59.5419 89.5435C59.0198 90.2787 58.4397 90.801 57.8015 91.1106C59.6966 92.0005 60.6442 93.6062 60.6442 95.9278ZM54.0887 89.2823C55.5777 89.2823 56.3222 88.5375 56.3222 87.0478C56.3222 85.5582 55.5777 84.8134 54.0887 84.8134H49.7087V89.2823H54.0887ZM56.6123 95.7246C56.6123 94.796 56.4479 94.0996 56.1191 93.6352C55.7904 93.1516 55.2006 92.9098 54.3497 92.9098H49.7087V96.1599C49.7087 96.9531 49.9021 97.5045 50.2888 97.814C50.6949 98.1236 51.3524 98.2783 52.2613 98.2783H54.3497C55.8581 98.2783 56.6123 97.4271 56.6123 95.7246ZM66.3934 78.9805C67.3023 78.9805 67.8921 79.1256 68.1628 79.4158C68.4336 79.6866 68.5689 80.2767 68.5689 81.1859C68.5689 82.0759 68.4239 82.6659 68.1338 82.9561C67.8631 83.227 67.2733 83.3624 66.3644 83.3624C65.4749 83.3624 64.8851 83.2173 64.595 82.9271C64.3243 82.6369 64.1889 82.0468 64.1889 81.1569C64.1889 80.267 64.3243 79.6866 64.595 79.4158C64.8851 79.1256 65.4846 78.9805 66.3934 78.9805ZM68.2499 101.877H64.479V85.9161H68.2499V101.877ZM80.589 85.4228L84.3598 85.1906V101.122C84.3598 102.96 83.8377 104.363 82.7935 105.33C81.7686 106.317 80.2409 106.81 78.2104 106.81C76.6441 106.81 75.2711 106.5 74.0915 105.881C73.4727 105.572 72.9796 105.108 72.6122 104.488C72.2448 103.869 72.061 103.134 72.061 102.283L75.5708 102.109C75.5708 102.651 75.7642 103.038 76.151 103.27C76.5377 103.502 77.1952 103.618 78.1234 103.618C79.071 103.618 79.7091 103.386 80.0379 102.921C80.3859 102.457 80.56 101.79 80.56 100.919L80.705 98.4234L76.6441 100.6C74.4202 100.6 72.9216 99.8454 72.1481 98.3364C71.4519 97.0015 71.1038 95.3667 71.1038 93.4321C71.1038 91.1299 71.2779 89.5048 71.6259 88.5569C71.9934 87.5122 72.5155 86.7577 73.1923 86.2933C74.0625 85.713 75.2034 85.4228 76.6151 85.4228H80.589ZM80.589 95.1442V88.818H77.7173C76.6344 88.818 75.8899 89.1856 75.4838 89.9208C75.0777 90.6559 74.8747 91.6813 74.8747 92.9968C74.8747 94.3124 75.0777 95.2507 75.4838 95.8117C75.9093 96.3534 76.6538 96.6242 77.7173 96.6242L80.589 95.1442ZM106.031 93.8674H109.773C109.773 96.4985 109.115 98.5202 107.8 99.9324C106.485 101.345 104.629 102.051 102.231 102.051C96.9518 102.051 94.3122 98.9458 94.3122 92.7356V90.9945C94.3122 86.0999 95.6658 83.0335 98.3731 81.7953C99.4367 81.2923 100.723 81.0408 102.231 81.0408C104.435 81.0408 106.224 81.6502 107.597 82.8691C108.99 84.0685 109.686 85.8097 109.686 88.0925H105.915C105.702 86.9511 105.325 86.0902 104.784 85.5098C104.242 84.9294 103.391 84.6392 102.231 84.6392C100.877 84.6392 99.8718 85.0649 99.2143 85.9161C98.7502 86.5158 98.4795 87.5412 98.4021 88.9921C98.3634 89.4565 98.3441 90.0852 98.3441 90.8784V92.6776C98.3441 94.9024 98.6535 96.4211 99.2723 97.2336C99.9105 98.0462 100.897 98.4525 102.231 98.4525C103.585 98.4525 104.513 98.0849 105.016 97.3497C105.538 96.5952 105.876 95.4344 106.031 93.8674ZM114.832 78.9805C115.741 78.9805 116.331 79.1256 116.602 79.4158C116.872 79.6866 117.008 80.2767 117.008 81.1859C117.008 82.0759 116.863 82.6659 116.573 82.9561C116.302 83.227 115.712 83.3624 114.803 83.3624C113.914 83.3624 113.324 83.2173 113.034 82.9271C112.763 82.6369 112.628 82.0468 112.628 81.1569C112.628 80.267 112.763 79.6866 113.034 79.4158C113.324 79.1256 113.923 78.9805 114.832 78.9805ZM116.689 101.877H112.918V85.9161H116.689V101.877ZM127.984 101.877H125.634C124.203 101.877 123.11 101.451 122.356 100.6C121.621 99.7487 121.254 98.733 121.254 97.5529V88.8471H119.659V85.9741H121.254V82.724H125.025V85.9741H127.693V88.8471H125.025V97.3207C125.025 98.23 125.46 98.6846 126.33 98.6846H127.984V101.877ZM143.199 85.3067L136.905 103.734C136.615 104.566 136.238 105.214 135.774 105.678C135 106.452 133.917 106.839 132.525 106.839H130.755V103.444H131.916C132.457 103.444 132.854 103.347 133.105 103.154C133.376 102.979 133.608 102.622 133.801 102.08L134.091 101.267L129.102 85.3067H133.076L136.035 96.8274L139.225 85.3067H143.199ZM54.6637 140.981H47.354C45.0335 140.981 43.3994 140.584 42.4519 139.791C41.5237 138.979 41.0596 137.557 41.0596 135.525V120.319H54.6637V123.917H45.0915V128.764H51.792L51.5019 132.362H45.0915V135.235C45.0915 136.048 45.2752 136.609 45.6426 136.918C46.01 137.228 46.6772 137.382 47.6441 137.382H54.6637V140.981ZM69.7027 136.396V136.831C69.5866 138.282 68.9678 139.375 67.8462 140.11C66.744 140.845 65.3613 141.213 63.6983 141.213C61.2424 141.213 59.5213 140.768 58.5351 139.878C57.6262 139.066 57.1718 137.866 57.1718 136.28V135.931H60.5946C60.5946 136.821 60.8266 137.431 61.2907 137.76C61.7549 138.089 62.5574 138.253 63.6983 138.253C65.2453 138.253 66.0188 137.692 66.0188 136.57C66.0188 135.641 65.7481 135.022 65.2066 134.713C64.9553 134.558 64.6362 134.442 64.2494 134.364L61.3198 133.871C58.7672 133.465 57.4909 131.869 57.4909 129.083C57.4909 127.535 58.0517 126.336 59.1733 125.484C60.3142 124.614 61.7549 124.179 63.4953 124.179C67.4595 124.179 69.4416 125.891 69.4416 129.315V129.692H66.1639C66.1252 128.783 65.8835 128.164 65.4387 127.835C64.9939 127.506 64.3654 127.342 63.5533 127.342C62.7604 127.342 62.1609 127.506 61.7549 127.835C61.3488 128.145 61.1457 128.493 61.1457 128.88C61.1457 129.983 61.5905 130.611 62.48 130.766L65.9898 131.404C68.465 131.869 69.7027 133.533 69.7027 136.396ZM81.3337 134.916L84.7565 134.887C84.7371 135.042 84.7178 135.322 84.6985 135.728C84.6791 136.135 84.6598 136.415 84.6404 136.57C84.6404 136.705 84.6211 136.928 84.5824 137.237C84.5438 137.547 84.4954 137.779 84.4374 137.934C84.3987 138.069 84.3407 138.253 84.2634 138.485C83.9153 139.491 82.9677 140.284 81.4207 140.865C80.4345 141.213 79.3999 141.387 78.317 141.387C77.2534 141.387 76.2865 141.213 75.4163 140.865C74.5461 140.517 73.8597 140.072 73.3569 139.53C72.2159 138.33 71.6455 136.086 71.6455 132.797C71.6455 129.489 72.2159 127.235 73.3569 126.036C73.8597 125.494 74.5461 125.049 75.4163 124.701C76.2865 124.353 77.2534 124.179 78.317 124.179C80.4055 124.179 81.9912 124.701 83.0741 125.746C84.157 126.79 84.6985 128.241 84.6985 130.099H81.2757C81.2757 129.247 81.063 128.619 80.6375 128.212C80.2121 127.787 79.4193 127.574 78.259 127.574C77.1181 127.574 76.3542 127.932 75.9675 128.648C75.6001 129.363 75.4163 130.437 75.4163 131.869V133.378C75.4163 135.68 75.8611 137.092 76.7506 137.615C77.1567 137.866 77.6885 137.992 78.346 137.992C79.0035 137.992 79.5353 137.934 79.9414 137.818C80.3668 137.682 80.6665 137.46 80.8406 137.15C81.034 136.841 81.1597 136.541 81.2177 136.251C81.2757 135.941 81.3144 135.496 81.3337 134.916ZM99.3048 140.981H96.7813L95.621 138.979L91.5891 141.155C89.3459 141.155 87.8375 140.342 87.064 138.717C86.6773 137.924 86.4066 137.073 86.2519 136.164C86.1165 135.235 86.0488 134.277 86.0488 133.291C86.0488 132.285 86.0585 131.55 86.0778 131.085C86.0971 130.602 86.1455 130.05 86.2228 129.431C86.3002 128.793 86.4066 128.261 86.5419 127.835C86.6966 127.409 86.9093 126.974 87.1801 126.529C87.4508 126.065 87.7795 125.697 88.1663 125.426C89.0365 124.827 90.1677 124.527 91.5601 124.527H95.534L99.3048 124.295V140.981ZM95.534 135.699V127.922H92.6623C91.5987 127.922 90.8542 128.328 90.4288 129.141C90.0227 129.953 89.8197 131.172 89.8197 132.797C89.8197 134.403 90.013 135.535 90.3998 136.193C90.8059 136.85 91.5601 137.179 92.6623 137.179L95.534 135.699ZM116.627 132.246C116.627 136.56 115.515 139.317 113.291 140.517C112.382 141 111.27 141.242 109.955 141.242L107.171 139.443V145.914H103.4V124.527H110.826C113.069 124.527 114.596 125.165 115.409 126.442C116.221 127.7 116.627 129.634 116.627 132.246ZM112.856 132.826C112.856 129.557 111.812 127.922 109.723 127.922H107.171V135.612L109.723 137.266C110.845 137.266 111.647 136.918 112.131 136.222C112.614 135.506 112.856 134.374 112.856 132.826ZM132.046 133.581H122.387C122.387 135.09 122.619 136.193 123.083 136.889C123.566 137.586 124.523 137.934 125.954 137.934C126.883 137.934 127.569 137.644 128.014 137.063C128.459 136.463 128.681 135.893 128.681 135.351H132.075C132.075 137.421 131.514 138.94 130.392 139.907C129.29 140.874 127.821 141.358 125.983 141.358C124.166 141.358 122.754 141.097 121.749 140.575C119.679 139.511 118.645 136.686 118.645 132.101C118.645 129.373 119.235 127.38 120.414 126.123C121.594 124.846 123.392 124.208 125.809 124.208C130.006 124.208 132.104 126.539 132.104 131.201C132.104 131.704 132.085 132.498 132.046 133.581ZM122.474 130.998H128.681C128.681 129.721 128.439 128.793 127.956 128.212C127.473 127.632 126.728 127.342 125.722 127.342C124.736 127.342 123.943 127.642 123.344 128.241C122.764 128.822 122.474 129.741 122.474 130.998ZM146.893 136.396V136.831C146.777 138.282 146.158 139.375 145.037 140.11C143.934 140.845 142.552 141.213 140.889 141.213C138.433 141.213 136.712 140.768 135.726 139.878C134.817 139.066 134.362 137.866 134.362 136.28V135.931H137.785C137.785 136.821 138.017 137.431 138.481 137.76C138.945 138.089 139.748 138.253 140.889 138.253C142.436 138.253 143.209 137.692 143.209 136.57C143.209 135.641 142.939 135.022 142.397 134.713C142.146 134.558 141.827 134.442 141.44 134.364L138.51 133.871C135.958 133.465 134.681 131.869 134.681 129.083C134.681 127.535 135.242 126.336 136.364 125.484C137.505 124.614 138.945 124.179 140.686 124.179C144.65 124.179 146.632 125.891 146.632 129.315V129.692H143.354C143.316 128.783 143.074 128.164 142.629 127.835C142.184 127.506 141.556 127.342 140.744 127.342C139.951 127.342 139.351 127.506 138.945 127.835C138.539 128.145 138.336 128.493 138.336 128.88C138.336 129.983 138.781 130.611 139.67 130.766L143.18 131.404C145.656 131.869 146.893 133.533 146.893 136.396Z" fill="#ECF0F1"/>
</svg>
