<svg width="110" height="150" viewBox="0 0 110 150" fill="none" xmlns="http://www.w3.org/2000/svg">
<g clip-path="url(#clip0)">
<path d="M110 29.4785L99.9787 137.935L54.9327 150L10.0107 137.952L0 29.4785H110Z" fill="#264DE4"/>
<path d="M91.3994 131.029L99.9633 38.3477H55V140.778L91.3994 131.029Z" fill="#2965F1"/>
<path d="M22.9492 78.5791L24.1835 91.8828H55V78.5791H22.9492Z" fill="#EBEBEB"/>
<path d="M55 51.6519H54.9524H20.4692L21.7211 64.9559H55V51.6519Z" fill="#EBEBEB"/>
<path d="M55.0001 126.972V113.131L54.9397 113.146L39.603 109.146L38.6226 98.5352H31.1702H24.7988L26.7281 119.424L54.9367 126.989L55.0001 126.972Z" fill="#EBEBEB"/>
<path d="M25.8877 0H42.5666V6.73828H32.8625V13.4766H42.5666V20.2148H25.8877V0Z" fill="black"/>
<path d="M45.9023 0H62.5812V5.85938H52.8772V7.03125H62.5812V20.5078H45.9023V14.3555H55.6064V13.1836H45.9023V0Z" fill="black"/>
<path d="M65.917 0H82.5959V5.85938H72.8918V7.03125H82.5959V20.5078H65.917V14.3555H75.6211V13.1836H65.917V0Z" fill="black"/>
<path d="M71.9094 91.8829L70.311 109.137L54.9521 113.142V126.983L83.1831 119.424L83.3903 117.176L86.6263 82.1517L86.9623 78.5792L89.4483 51.6519H54.9521V64.9559H74.3567L73.1036 78.5792H54.9521V91.8829H71.9094Z" fill="white"/>
</g>
<defs>
<clipPath id="clip0">
<rect width="110" height="150" fill="white"/>
</clipPath>
</defs>
</svg>
