<svg width="150" height="150" viewBox="0 0 150 150" fill="none" xmlns="http://www.w3.org/2000/svg">
<path d="M31.7578 0H38.4961V6.67969H44.707V0H51.4453V20.2148H44.707V13.4766H38.5547V20.2148H31.7578V0ZM60.3516 6.73828H54.4043V0H73.0664V6.73828H67.0898V20.2148H60.3516V6.73828ZM76.0254 0H83.0859L87.4219 7.11914L91.7578 0H98.8183V20.2148H92.0801V10.1953L87.3633 17.4609L82.6465 10.1953V20.2148H76.0254V0ZM102.158 0H108.896V13.5352H118.447V20.2148H102.158" fill="black"/>
<path d="M31.5234 137.988L21.8555 29.4727H128.145L118.477 137.93L74.9121 150" fill="#E44D26"/>
<path d="M75 140.771V38.3789H118.447L110.156 130.957" fill="#F16529"/>
<path d="M41.6016 51.6504H75V64.9512H56.1914L57.4219 78.5742H75V91.8457H45.2344L41.6016 51.6504ZM45.8203 98.5254H59.1797L60.1172 109.16L75 113.145V127.031L47.6953 119.414" fill="#EBEBEB"/>
<path d="M108.281 51.6504H74.9414V64.9512H107.051L108.281 51.6504ZM105.85 78.5742H74.9414V91.875H91.3477L89.7949 109.16L74.9414 113.145V126.973L102.188 119.414" fill="white"/>
</svg>
