<svg width="143" height="143" viewBox="0 0 143 143" fill="none" xmlns="http://www.w3.org/2000/svg">
<path d="M143 0H0V143H143V0Z" fill="#F7DF1E"/>
<path d="M96.0599 111.719C98.9403 116.423 102.688 119.879 109.316 119.879C114.884 119.879 118.441 117.097 118.441 113.252C118.441 108.644 114.786 107.012 108.658 104.331L105.298 102.89C95.6014 98.7586 89.1596 93.5834 89.1596 82.6427C89.1596 72.5646 96.8385 64.8926 108.839 64.8926C117.383 64.8926 123.525 67.8661 127.951 75.6516L117.487 82.3704C115.183 78.2392 112.698 76.6118 108.839 76.6118C104.903 76.6118 102.409 79.1086 102.409 82.3704C102.409 86.4016 104.905 88.0336 110.671 90.5304L114.03 91.9695C125.448 96.8656 131.894 101.857 131.894 113.079C131.894 125.177 122.39 131.805 109.627 131.805C97.1472 131.805 89.0847 125.858 85.1397 118.064L96.0599 111.719ZM48.5907 112.884C50.7017 116.629 52.6219 119.796 57.2388 119.796C61.6536 119.796 64.4387 118.068 64.4387 111.352V65.6598H77.8762V111.533C77.8762 125.447 69.7184 131.78 57.8108 131.78C47.0518 131.78 40.821 126.212 37.6523 119.506L48.5907 112.884Z" fill="black"/>
</svg>
