<svg width="213" height="148" viewBox="0 0 213 148" fill="none" xmlns="http://www.w3.org/2000/svg">
<g clip-path="url(#clip0)">
<path d="M65.2001 119.524H59.4336C59.2296 109.767 58.668 100.595 57.7498 92.0002H57.6986L48.919 119.524H44.5286L35.8014 92.0002H35.7513C35.1039 100.252 34.696 109.427 34.5267 119.524H29.2705C29.6093 107.245 30.4606 95.7341 31.8211 84.9893H38.9683L47.2865 110.365H47.3378L55.7073 84.9893H62.5458C64.0434 97.5748 64.9282 109.087 65.2001 119.524ZM90.2084 94.0442C87.8605 106.815 84.7628 116.095 80.9184 121.887C77.9232 126.346 74.6416 128.577 71.068 128.577C70.1153 128.577 68.9397 128.289 67.5468 127.717V124.638C68.2276 124.736 69.0266 124.792 69.9448 124.792C71.614 124.792 72.9556 124.332 73.9785 123.409C75.202 122.286 75.8138 121.023 75.8138 119.625C75.8138 118.667 75.3369 116.708 74.3853 113.741L68.0571 94.0431H73.7223L78.2641 108.775C79.2849 112.121 79.7105 114.456 79.54 115.786C82.0238 109.137 83.7588 101.887 84.7472 94.042H90.2084V94.0442Z" fill="#5D87A1"/>
<path d="M166.967 119.524H150.587V84.9894H156.097V115.273H166.967V119.524ZM146.299 120.358L139.965 117.225C140.527 116.763 141.064 116.262 141.547 115.683C144.24 112.513 145.582 107.825 145.582 101.616C145.582 90.1909 141.11 84.4756 132.161 84.4756C127.772 84.4756 124.349 85.9254 121.901 88.826C119.211 91.9981 117.869 96.6691 117.869 102.845C117.869 108.915 119.059 113.368 121.44 116.193C123.618 118.752 126.902 120.033 131.294 120.033C132.932 120.033 134.435 119.832 135.804 119.427L144.05 124.238L146.299 120.358ZM125.781 112.613C124.386 110.364 123.689 106.752 123.689 101.771C123.689 93.076 126.324 88.7233 131.6 88.7233C134.358 88.7233 136.379 89.7643 137.672 91.8418C139.065 94.0946 139.766 97.6744 139.766 102.586C139.766 111.352 137.128 115.736 131.855 115.736C129.096 115.737 127.075 114.7 125.781 112.613ZM115.467 109.952C115.467 112.88 114.395 115.283 112.254 117.165C110.11 119.039 107.235 119.978 103.632 119.978C100.263 119.978 96.9954 118.899 93.833 116.753L95.3139 113.787C98.035 115.153 100.499 115.832 102.711 115.832C104.787 115.832 106.409 115.371 107.586 114.456C108.761 113.538 109.462 112.25 109.462 110.622C109.462 108.57 108.035 106.816 105.416 105.348C103.001 104.019 98.1721 101.24 98.1721 101.24C95.5546 99.3274 94.2442 97.2745 94.2442 93.8924C94.2442 91.0934 95.2214 88.8339 97.177 87.1149C99.1349 85.3892 101.661 84.5292 104.758 84.5292C107.956 84.5292 110.863 85.3881 113.482 87.0881L112.153 90.0547C109.914 89.1008 107.703 88.6239 105.522 88.6239C103.756 88.6239 102.392 89.0494 101.444 89.9039C100.488 90.755 99.8982 91.844 99.8982 93.1798C99.8982 95.2216 101.356 96.9975 104.046 98.4953C106.493 99.8267 111.442 102.654 111.442 102.654C114.127 104.563 115.467 106.596 115.467 109.952Z" fill="#F8981D"/>
<path d="M173.885 73.4225C170.553 73.3376 167.973 73.6738 165.808 74.592C165.183 74.8422 164.189 74.8422 164.102 75.6341C164.44 75.9691 164.479 76.5097 164.772 76.9721C165.271 77.8065 166.141 78.929 166.936 79.5143C167.808 80.1844 168.684 80.8479 169.602 81.432C171.221 82.4362 173.057 83.0203 174.635 84.0211C175.554 84.603 176.468 85.3558 177.388 85.9824C177.84 86.3164 178.13 86.8581 178.717 87.067V86.9396C178.423 86.5643 178.34 86.0215 178.051 85.6038L176.801 84.3953C175.593 82.769 174.092 81.3494 172.473 80.1833C171.14 79.263 168.225 78.012 167.685 76.4729L167.6 76.388C168.516 76.302 169.602 75.9691 170.473 75.7134C171.889 75.3392 173.18 75.4241 174.633 75.0499C175.302 74.8824 175.965 74.6724 176.636 74.4657V74.0893C175.883 73.3376 175.345 72.3391 174.553 71.6287C172.434 69.7936 170.098 67.9987 167.685 66.4964C166.392 65.6599 164.729 65.1215 163.353 64.41C162.857 64.1587 162.022 64.0347 161.73 63.617C160.983 62.6989 160.563 61.4904 160.022 60.4036C158.818 58.1105 157.649 55.5662 156.611 53.1413C155.86 51.515 155.403 49.891 154.487 48.3865C150.197 41.294 145.538 36.9983 138.377 32.7819C136.838 31.904 135.008 31.5298 133.052 31.0696L129.929 30.9043C129.262 30.6117 128.595 29.8175 128.013 29.4422C125.638 27.9411 119.521 24.6875 117.774 28.9832C116.648 31.6985 119.439 34.3679 120.397 35.7451C121.105 36.7012 122.022 37.7891 122.516 38.8747C122.809 39.584 122.892 40.3368 123.185 41.0863C123.851 42.9225 124.474 44.9654 125.35 46.6787C125.807 47.5522 126.305 48.4703 126.889 49.2611C127.223 49.7235 127.805 49.9279 127.932 50.6818C127.351 51.5128 127.306 52.7671 126.972 53.8103C125.475 58.5249 126.06 64.3653 128.183 67.8301C128.847 68.8733 130.431 71.1697 132.551 70.2895C134.427 69.539 134.011 67.161 134.551 65.0757C134.675 64.572 134.593 64.2414 134.843 63.9107V63.9923C135.423 65.1595 136.009 66.2842 136.548 67.4548C137.839 69.4976 140.088 71.6265 141.961 73.0417C142.958 73.7967 143.748 75.0879 144.997 75.5492V75.4241H144.915C144.662 75.0499 144.292 74.8824 143.96 74.592C143.209 73.8403 142.378 72.9221 141.795 72.0889C140.05 69.7512 138.505 67.1632 137.135 64.4927C136.464 63.197 135.886 61.7808 135.345 60.4874C135.093 59.9881 135.093 59.2353 134.676 58.984C134.049 59.901 133.137 60.6951 132.68 61.8187C131.888 63.6159 131.805 65.8263 131.511 68.1249L131.347 68.2053C130.021 67.8714 129.56 66.4964 129.056 65.3292C127.809 62.3649 127.6 57.6068 128.682 54.1867C128.972 53.3122 130.225 50.5578 129.725 49.7246C129.474 48.926 128.641 48.4714 128.184 47.8426C127.647 47.0518 127.058 46.051 126.684 45.1731C125.685 42.8376 125.183 40.2497 124.108 37.9153C123.605 36.8274 122.733 35.7015 122.026 34.6996C121.233 33.5738 120.36 32.7808 119.733 31.446C119.526 30.987 119.235 30.2364 119.568 29.7371C119.649 29.402 119.819 29.2769 120.151 29.1932C120.69 28.7363 122.231 29.3172 122.772 29.5685C124.315 30.1939 125.605 30.7781 126.893 31.6538C127.476 32.0726 128.101 32.8656 128.849 33.0745H129.725C131.054 33.3649 132.553 33.1549 133.804 33.5325C136.009 34.2428 138.007 35.2849 139.799 36.4097C145.251 39.8755 149.748 44.8001 152.783 50.6818C153.281 51.6401 153.493 52.518 153.947 53.5177C154.824 55.5639 155.909 57.6503 156.779 59.653C157.654 61.6132 158.487 63.6148 159.736 65.2432C160.359 66.1189 162.862 66.578 163.984 67.037C164.814 67.4112 166.107 67.7441 166.856 68.2031C168.272 69.0777 169.683 70.0818 171.014 71.0435C171.677 71.5439 173.761 72.5871 173.885 73.4225ZM131.423 37.1625C130.848 37.1565 130.275 37.2271 129.719 37.3725V37.4562H129.799C130.135 38.123 130.718 38.5854 131.133 39.1674C131.469 39.8364 131.759 40.4999 132.088 41.1678L132.168 41.0851C132.756 40.6685 133.048 40.0006 133.048 38.9987C132.795 38.7038 132.756 38.4157 132.545 38.123C132.3 37.7053 131.759 37.4976 131.423 37.1625Z" fill="#5D87A1"/>
<path d="M177.849 119.518H178.712V115.287H177.418L176.363 118.175L175.216 115.287H173.97V119.518H174.785V116.299H174.83L176.032 119.518H176.652L177.849 116.299V119.518ZM170.901 119.518H171.814V116.004H173.009V115.286H169.657V116.004H170.899L170.901 119.518Z" fill="#F8981D"/>
</g>
<defs>
<clipPath id="clip0">
<rect width="213" height="148" fill="white"/>
</clipPath>
</defs>
</svg>
