<svg width="191" height="117" viewBox="0 0 191 117" fill="none" xmlns="http://www.w3.org/2000/svg">
<g clip-path="url(#clip0)">
<path d="M94.4042 117C93.7739 117 93.1478 116.835 92.5951 116.517L86.8367 113.107C85.9766 112.626 86.3963 112.456 86.68 112.358C87.8267 111.956 88.0595 111.865 89.2835 111.17C89.4122 111.097 89.5806 111.123 89.7123 111.2L94.1361 113.826C94.2959 113.912 94.5225 113.912 94.6706 113.826L111.92 103.868C112.079 103.777 112.183 103.591 112.183 103.401V83.493C112.183 83.2943 112.079 83.1173 111.916 83.018L94.6741 73.0682C94.5143 72.9732 94.3028 72.9732 94.143 73.0682L76.9044 83.018C76.7373 83.113 76.6311 83.2987 76.6311 83.4887V103.397C76.6311 103.587 76.7347 103.768 76.8988 103.859L81.6223 106.588C84.187 107.871 85.7543 106.359 85.7543 104.839V85.1901C85.7543 84.9094 85.9745 84.6935 86.2551 84.6935H88.4398C88.7119 84.6935 88.9364 84.9094 88.9364 85.1901V104.848C88.9364 108.268 87.0711 110.233 83.8286 110.233C82.8312 110.233 82.0454 110.233 79.852 109.153L75.3272 106.545C74.2089 105.897 73.5181 104.688 73.5181 103.397V83.4887C73.5181 82.1931 74.2089 80.984 75.3272 80.3448L92.5934 70.3821C93.6858 69.7646 95.1365 69.7646 96.2202 70.3821L113.465 80.3491C114.579 80.9926 115.274 82.1974 115.274 83.493V103.401C115.274 104.692 114.579 105.897 113.465 106.545L96.2202 116.508C95.6676 116.827 95.0415 116.991 94.4025 116.991" fill="#689F63"/>
<path d="M99.7322 103.282C92.185 103.282 90.6025 99.8173 90.6025 96.9109C90.6025 96.6346 90.8253 96.4143 91.1021 96.4143H93.33C93.5761 96.4143 93.7833 96.5935 93.8222 96.8367C94.159 99.1073 95.1607 100.253 99.7244 100.253C103.36 100.253 104.906 99.4312 104.906 97.503C104.906 96.3932 104.465 95.5683 98.8177 95.0156C94.0942 94.5492 91.1755 93.5084 91.1755 89.7298C91.1755 86.2491 94.1115 84.1762 99.0293 84.1762C104.552 84.1762 107.289 86.0936 107.634 90.2134C107.647 90.3559 107.595 90.4941 107.5 90.5978C107.406 90.6971 107.272 90.7575 107.133 90.7575H104.893C104.659 90.7575 104.457 90.5934 104.409 90.3689C103.869 87.9808 102.565 87.2164 99.0207 87.2164C95.0527 87.2164 94.5907 88.5983 94.5907 89.6347C94.5907 90.8914 95.1348 91.2585 100.489 91.9667C105.791 92.6706 108.308 93.6639 108.308 97.3907C108.308 101.148 105.173 103.303 99.7072 103.303L99.7322 103.282ZM120.717 82.1897H121.295C121.77 82.1897 121.861 81.8572 121.861 81.6628C121.861 81.1533 121.511 81.1533 121.317 81.1533H120.721L120.717 82.1897ZM120.013 80.5573H121.295C121.736 80.5573 122.599 80.5573 122.599 81.5419C122.599 82.2286 122.159 82.3711 121.896 82.4574C122.409 82.492 122.444 82.8288 122.513 83.3039C122.547 83.6018 122.604 84.1157 122.707 84.2885H121.917C121.896 84.1157 121.775 83.1657 121.775 83.1138C121.723 82.9022 121.649 82.7986 121.386 82.7986H120.734V84.2928H120.013V80.5573ZM118.472 82.4142C118.472 83.9603 119.719 85.2126 121.252 85.2126C122.798 85.2126 124.046 83.9344 124.046 82.4142C124.046 80.8639 122.781 79.6331 121.248 79.6331C119.737 79.6331 118.467 80.8466 118.467 82.4099L118.472 82.4142ZM124.581 82.4229C124.581 84.2539 123.083 85.7481 121.257 85.7481C119.443 85.7481 117.932 84.2712 117.932 82.4229C117.932 80.54 119.478 79.0977 121.257 79.0977C123.048 79.0977 124.577 80.5443 124.577 82.4229" fill="#689F63"/>
<path fill-rule="evenodd" clip-rule="evenodd" d="M40.99 39.1037C40.99 38.3091 40.5712 37.5793 39.8855 37.1841L21.5977 26.66C21.289 26.4786 20.9432 26.3836 20.5926 26.3707H20.4034C20.0529 26.3836 19.707 26.4786 19.3931 26.66L1.10618 37.1841C0.424856 37.5814 0 38.3112 0 39.1059L0.0401541 67.4523C0.0401541 67.8453 0.243083 68.2124 0.588495 68.4067C0.925271 68.614 1.3484 68.614 1.68518 68.4067L12.557 62.1795C13.2435 61.7709 13.6623 61.0489 13.6623 60.2621V47.0195C13.6623 46.2292 14.0811 45.4993 14.7655 45.1064L19.394 42.4401C19.7377 42.2415 20.115 42.143 20.4993 42.143C20.8775 42.143 21.2635 42.2406 21.5977 42.4397L26.2241 45.1051C26.9088 45.4981 27.3294 46.2279 27.3294 47.0182V60.2599C27.3294 61.0459 27.7538 61.7714 28.4369 62.1773L39.3018 68.4002C39.6429 68.6032 40.0673 68.6032 40.4071 68.4002C40.7421 68.2059 40.9546 67.8388 40.9546 67.4458L40.99 39.1037ZM127.286 53.8625C127.286 54.0599 127.181 54.2425 127.009 54.3401L120.728 57.9616C120.558 58.0596 120.347 58.0596 120.177 57.9616L113.895 54.3401C113.722 54.2421 113.618 54.0594 113.618 53.8625V46.6092C113.618 46.4114 113.722 46.2292 113.89 46.1298L120.168 42.5023C120.341 42.403 120.552 42.403 120.725 42.5023L127.007 46.1298C127.18 46.2292 127.284 46.4114 127.284 46.6092L127.286 53.8625ZM128.983 0.139825C128.64 -0.0510514 128.223 -0.0458693 127.884 0.151485C127.547 0.350135 127.339 0.712887 127.339 1.10587V29.1759C127.339 29.4523 127.193 29.7071 126.953 29.8453C126.716 29.9835 126.42 29.9835 126.18 29.8453L121.599 27.2063C120.917 26.8116 120.077 26.8116 119.392 27.2063L101.098 37.7663C100.415 38.1592 99.9931 38.8891 99.9931 39.675V60.801C99.9931 61.5913 100.415 62.3168 101.098 62.7141L119.392 73.2814C120.075 73.6744 120.916 73.6744 121.602 73.2814L139.895 62.7098C140.578 62.3125 141.001 61.587 141.001 60.7967V8.14584C141.001 7.34434 140.565 6.60717 139.865 6.21549L128.983 0.139825ZM189.902 46.4183C190.581 46.0236 191 45.2947 191 44.5087V39.3887C191 38.601 190.581 37.8742 189.9 37.4778L171.723 26.9234C171.036 26.5261 170.194 26.5261 169.508 26.9234L151.218 37.4821C150.532 37.8794 150.113 38.6049 150.113 39.3952V60.5125C150.113 61.3071 150.54 62.0413 151.227 62.4342L169.4 72.7943C170.069 73.1786 170.889 73.1829 171.567 72.8072L182.56 66.6966C182.905 66.5023 183.125 66.1352 183.125 65.7379C183.125 65.3406 182.914 64.9692 182.568 64.7749L164.167 54.2119C163.821 54.0175 163.61 53.6505 163.61 53.2575V46.6329C163.61 46.2374 163.817 45.8729 164.162 45.676L169.888 42.3723C170.229 42.1737 170.647 42.1737 170.989 42.3723L176.718 45.676C177.059 45.8703 177.271 46.2374 177.271 46.6304V51.8384C177.271 52.2314 177.482 52.5985 177.823 52.7971C178.164 52.9915 178.588 52.9915 178.929 52.7928L189.902 46.4183Z" fill="#333333"/>
<path fill-rule="evenodd" clip-rule="evenodd" d="M170.347 45.4304C170.477 45.3539 170.639 45.3539 170.771 45.4304L174.281 47.4557C174.412 47.5317 174.492 47.6717 174.492 47.8228V51.8779C174.492 52.029 174.412 52.1689 174.281 52.2449L170.771 54.2703C170.639 54.3467 170.477 54.3467 170.347 54.2703L166.839 52.2449C166.706 52.1689 166.624 52.029 166.624 51.8779V47.8228C166.624 47.6717 166.701 47.5317 166.835 47.4557L170.347 45.4304Z" fill="#689F63"/>
<path d="M109.261 35.7469L58.0041 10.6177L31.7227 64.2419L82.9782 89.3724L109.261 35.7469Z" fill="url(#paint0_linear)"/>
<path d="M28.395 43.1797L64.5876 92.174L112.453 56.8032L76.2582 7.81006L28.395 43.1797Z" fill="url(#paint1_linear)"/>
<path d="M51.2568 26.7393V73.1326H90.8423V26.7393H51.2568Z" fill="url(#paint2_linear)"/>
</g>
<defs>
<linearGradient id="paint0_linear" x1="83.6172" y1="23.1428" x2="57.3293" y2="76.7594" gradientUnits="userSpaceOnUse">
<stop offset="0.3" stop-color="#3E863D"/>
<stop offset="0.5" stop-color="#55934F"/>
<stop offset="0.8" stop-color="#5AAD45"/>
</linearGradient>
<linearGradient id="paint1_linear" x1="46.7082" y1="67.9577" x2="94.582" y2="32.5915" gradientUnits="userSpaceOnUse">
<stop offset="0.57" stop-color="#3E863D"/>
<stop offset="0.72" stop-color="#619857"/>
<stop offset="1" stop-color="#76AC64"/>
</linearGradient>
<linearGradient id="paint2_linear" x1="51.2702" y1="49.9372" x2="90.8498" y2="49.9372" gradientUnits="userSpaceOnUse">
<stop offset="0.16" stop-color="#6BBF47"/>
<stop offset="0.38" stop-color="#79B461"/>
<stop offset="0.47" stop-color="#75AC64"/>
<stop offset="0.7" stop-color="#659E5A"/>
<stop offset="0.9" stop-color="#3E863D"/>
</linearGradient>
<clipPath id="clip0">
<rect width="191" height="117" fill="white"/>
</clipPath>
</defs>
</svg>
