<svg width="1429" height="1141" viewBox="0 0 1429 1141" fill="none" xmlns="http://www.w3.org/2000/svg">
<rect x="-11" width="1440" height="1141" fill="url(#paint0_linear)"/>
<path d="M-53.8628 283.982C549.446 200.465 489.465 739.128 1385.68 343.982C2281.9 -51.1641 1385.68 1110.48 1385.68 1110.48H-53.8627C-53.8627 1110.48 -657.172 367.498 -53.8628 283.982Z" fill="#95C973"/>
<path d="M-41 557.967C548.5 684.467 427.5 359.467 1399 557.967C2370.5 756.467 1399 1109.97 1399 1109.97H-41C-41 1109.97 -630.5 431.467 -41 557.967Z" fill="#5F8C17"/>
<path d="M-40.8889 702C794.111 388 876.111 870 1399.11 727.5C1922.11 585 1399.11 1081.5 1399.11 1081.5H-40.8889C-40.8889 1081.5 -875.889 1016 -40.8889 702Z" fill="#275A0B"/>
<path d="M-11.2441 1030.22C449.457 1050.18 1115.25 788.183 1429.38 943.388C1743.52 1098.59 1429.38 1147 1429.38 1147H-11.2441C-11.2441 1147 -471.945 1010.26 -11.2441 1030.22Z" fill="#013101"/>
<path d="M186.231 802.615L176.936 812.04V824H172.126V778.5H176.936V805.995L203.651 778.5H209.176L189.481 799.105L210.541 824H204.821L186.231 802.615ZM243.743 789.81L226.648 828.095C225.261 831.302 223.658 833.577 221.838 834.92C220.018 836.263 217.83 836.935 215.273 836.935C213.626 836.935 212.088 836.675 210.658 836.155C209.228 835.635 207.993 834.855 206.953 833.815L209.098 830.37C210.831 832.103 212.911 832.97 215.338 832.97C216.898 832.97 218.22 832.537 219.303 831.67C220.43 830.803 221.47 829.33 222.423 827.25L223.918 823.935L208.643 789.81H213.453L226.323 818.865L239.193 789.81H243.743ZM250.243 775.77H254.858V824H250.243V775.77ZM297.469 808.335H268.869C269.129 811.888 270.494 814.77 272.964 816.98C275.434 819.147 278.554 820.23 282.324 820.23C284.447 820.23 286.397 819.862 288.174 819.125C289.95 818.345 291.489 817.218 292.789 815.745L295.389 818.735C293.872 820.555 291.965 821.942 289.669 822.895C287.415 823.848 284.924 824.325 282.194 824.325C278.684 824.325 275.564 823.588 272.834 822.115C270.147 820.598 268.045 818.518 266.529 815.875C265.012 813.232 264.254 810.242 264.254 806.905C264.254 803.568 264.969 800.578 266.399 797.935C267.872 795.292 269.865 793.233 272.379 791.76C274.935 790.287 277.795 789.55 280.959 789.55C284.122 789.55 286.96 790.287 289.474 791.76C291.987 793.233 293.959 795.292 295.389 797.935C296.819 800.535 297.534 803.525 297.534 806.905L297.469 808.335ZM280.959 793.515C277.665 793.515 274.892 794.577 272.639 796.7C270.429 798.78 269.172 801.51 268.869 804.89H293.114C292.81 801.51 291.532 798.78 289.279 796.7C287.069 794.577 284.295 793.515 280.959 793.515ZM344.674 824.39C340.167 824.39 336.094 823.393 332.454 821.4C328.857 819.407 326.019 816.655 323.939 813.145C321.902 809.592 320.884 805.627 320.884 801.25C320.884 796.873 321.902 792.93 323.939 789.42C326.019 785.867 328.879 783.093 332.519 781.1C336.159 779.107 340.232 778.11 344.739 778.11C348.119 778.11 351.239 778.673 354.099 779.8C356.959 780.927 359.386 782.573 361.379 784.74L358.324 787.795C354.771 784.198 350.286 782.4 344.869 782.4C341.272 782.4 338.001 783.223 335.054 784.87C332.107 786.517 329.789 788.77 328.099 791.63C326.452 794.49 325.629 797.697 325.629 801.25C325.629 804.803 326.452 808.01 328.099 810.87C329.789 813.73 332.107 815.983 335.054 817.63C338.001 819.277 341.272 820.1 344.869 820.1C350.329 820.1 354.814 818.28 358.324 814.64L361.379 817.695C359.386 819.862 356.937 821.53 354.034 822.7C351.174 823.827 348.054 824.39 344.674 824.39ZM388.078 789.55C392.368 789.55 395.769 790.807 398.283 793.32C400.839 795.79 402.118 799.408 402.118 804.175V824H397.503V804.63C397.503 801.077 396.614 798.368 394.838 796.505C393.061 794.642 390.526 793.71 387.233 793.71C383.549 793.71 380.624 794.815 378.458 797.025C376.334 799.192 375.273 802.203 375.273 806.06V824H370.658V775.77H375.273V795.79C376.529 793.797 378.263 792.258 380.473 791.175C382.683 790.092 385.218 789.55 388.078 789.55ZM444.544 808.335H415.944C416.204 811.888 417.569 814.77 420.039 816.98C422.509 819.147 425.629 820.23 429.399 820.23C431.522 820.23 433.472 819.862 435.249 819.125C437.026 818.345 438.564 817.218 439.864 815.745L442.464 818.735C440.947 820.555 439.041 821.942 436.744 822.895C434.491 823.848 431.999 824.325 429.269 824.325C425.759 824.325 422.639 823.588 419.909 822.115C417.222 820.598 415.121 818.518 413.604 815.875C412.087 813.232 411.329 810.242 411.329 806.905C411.329 803.568 412.044 800.578 413.474 797.935C414.947 795.292 416.941 793.233 419.454 791.76C422.011 790.287 424.871 789.55 428.034 789.55C431.197 789.55 434.036 790.287 436.549 791.76C439.062 793.233 441.034 795.292 442.464 797.935C443.894 800.535 444.609 803.525 444.609 806.905L444.544 808.335ZM428.034 793.515C424.741 793.515 421.967 794.577 419.714 796.7C417.504 798.78 416.247 801.51 415.944 804.89H440.189C439.886 801.51 438.607 798.78 436.354 796.7C434.144 794.577 431.371 793.515 428.034 793.515ZM471.422 789.55C475.712 789.55 479.114 790.807 481.627 793.32C484.184 795.79 485.462 799.408 485.462 804.175V824H480.847V804.63C480.847 801.077 479.959 798.368 478.182 796.505C476.406 794.642 473.871 793.71 470.577 793.71C466.894 793.71 463.969 794.815 461.802 797.025C459.679 799.192 458.617 802.203 458.617 806.06V824H454.002V789.81H458.422V796.115C459.679 794.035 461.412 792.432 463.622 791.305C465.876 790.135 468.476 789.55 471.422 789.55ZM512.094 824.325C508.8 824.325 505.832 823.588 503.189 822.115C500.545 820.598 498.465 818.518 496.949 815.875C495.432 813.232 494.674 810.242 494.674 806.905C494.674 803.568 495.432 800.578 496.949 797.935C498.465 795.292 500.545 793.233 503.189 791.76C505.832 790.287 508.8 789.55 512.094 789.55C515.387 789.55 518.355 790.287 520.999 791.76C523.642 793.233 525.7 795.292 527.174 797.935C528.69 800.578 529.449 803.568 529.449 806.905C529.449 810.242 528.69 813.232 527.174 815.875C525.7 818.518 523.642 820.598 520.999 822.115C518.355 823.588 515.387 824.325 512.094 824.325ZM512.094 820.23C514.52 820.23 516.687 819.688 518.594 818.605C520.544 817.478 522.06 815.897 523.144 813.86C524.227 811.823 524.769 809.505 524.769 806.905C524.769 804.305 524.227 801.987 523.144 799.95C522.06 797.913 520.544 796.353 518.594 795.27C516.687 794.143 514.52 793.58 512.094 793.58C509.667 793.58 507.479 794.143 505.529 795.27C503.622 796.353 502.105 797.913 500.979 799.95C499.895 801.987 499.354 804.305 499.354 806.905C499.354 809.505 499.895 811.823 500.979 813.86C502.105 815.897 503.622 817.478 505.529 818.605C507.479 819.688 509.667 820.23 512.094 820.23ZM588.098 789.81L575.163 824H570.808L560.018 795.985L549.228 824H544.873L532.003 789.81H536.423L547.148 818.865L558.133 789.81H562.098L573.018 818.865L583.873 789.81H588.098ZM623.865 808.335H595.265C595.525 811.888 596.89 814.77 599.36 816.98C601.83 819.147 604.95 820.23 608.72 820.23C610.843 820.23 612.793 819.862 614.57 819.125C616.347 818.345 617.885 817.218 619.185 815.745L621.785 818.735C620.268 820.555 618.362 821.942 616.065 822.895C613.812 823.848 611.32 824.325 608.59 824.325C605.08 824.325 601.96 823.588 599.23 822.115C596.543 820.598 594.442 818.518 592.925 815.875C591.408 813.232 590.65 810.242 590.65 806.905C590.65 803.568 591.365 800.578 592.795 797.935C594.268 795.292 596.262 793.233 598.775 791.76C601.332 790.287 604.192 789.55 607.355 789.55C610.518 789.55 613.357 790.287 615.87 791.76C618.383 793.233 620.355 795.292 621.785 797.935C623.215 800.535 623.93 803.525 623.93 806.905L623.865 808.335ZM607.355 793.515C604.062 793.515 601.288 794.577 599.035 796.7C596.825 798.78 595.568 801.51 595.265 804.89H619.51C619.207 801.51 617.928 798.78 615.675 796.7C613.465 794.577 610.692 793.515 607.355 793.515ZM651.329 821.92C650.462 822.7 649.379 823.307 648.079 823.74C646.822 824.13 645.5 824.325 644.114 824.325C640.907 824.325 638.437 823.458 636.704 821.725C634.97 819.992 634.104 817.543 634.104 814.38V793.71H627.994V789.81H634.104V782.335H638.719V789.81H649.119V793.71H638.719V814.12C638.719 816.157 639.217 817.717 640.214 818.8C641.254 819.84 642.727 820.36 644.634 820.36C645.587 820.36 646.497 820.208 647.364 819.905C648.274 819.602 649.054 819.168 649.704 818.605L651.329 821.92ZM677.15 789.55C681.44 789.55 684.842 790.807 687.355 793.32C689.912 795.79 691.19 799.408 691.19 804.175V824H686.575V804.63C686.575 801.077 685.687 798.368 683.91 796.505C682.133 794.642 679.598 793.71 676.305 793.71C672.622 793.71 669.697 794.815 667.53 797.025C665.407 799.192 664.345 802.203 664.345 806.06V824H659.73V775.77H664.345V795.79C665.602 793.797 667.335 792.258 669.545 791.175C671.755 790.092 674.29 789.55 677.15 789.55Z" fill="white"/>
<defs>
<linearGradient id="paint0_linear" x1="709" y1="0" x2="709" y2="1141" gradientUnits="userSpaceOnUse">
<stop offset="0.154014" stop-color="#61C5FF"/>
<stop offset="1" stop-color="white" stop-opacity="0"/>
</linearGradient>
</defs>
</svg>
