<svg width="174" height="139" viewBox="0 0 174 139" fill="none" xmlns="http://www.w3.org/2000/svg">
<g clip-path="url(#clip0)">
<path d="M174 0H-1.33984V139H174V0Z" fill="url(#paint0_linear)"/>
<path d="M-6.55867 34.5959C66.9023 24.4216 59.5988 90.0431 168.725 41.9053C277.852 -6.23263 168.725 135.282 168.725 135.282H-6.55865C-6.55865 135.282 -80.0197 44.77 -6.55867 34.5959Z" fill="#7DAF5C"/>
<path d="M-4.9925 67.9729C66.7871 83.3835 52.0537 43.791 170.347 67.9729C288.64 92.1547 170.347 135.219 170.347 135.219H-4.9925C-4.9925 135.219 -76.7721 52.5623 -4.9925 67.9729Z" fill="#5F8C17"/>
<path d="M-4.97921 85.5196C96.6933 47.2672 106.678 105.986 170.36 88.6261C234.042 71.2663 170.36 131.751 170.36 131.751H-4.97921C-4.97921 131.751 -106.652 123.772 -4.97921 85.5196Z" fill="#275A0B"/>
<path d="M-1.36899 125.505C54.7276 127.937 135.797 96.0193 174.046 114.927C212.297 133.834 174.046 139.731 174.046 139.731H-1.36899C-1.36899 139.731 -57.4655 123.073 -1.36899 125.505Z" fill="#013101"/>
<path d="M22.6765 97.7772L21.5447 98.9253V100.382H20.959V94.8394H21.5447V98.1889L24.7976 94.8394H25.4703L23.0722 97.3496L25.6365 100.382H24.94L22.6765 97.7772ZM29.6793 96.2172L27.5978 100.881C27.4289 101.272 27.2337 101.549 27.0121 101.713C26.7905 101.876 26.5241 101.958 26.2127 101.958C26.0122 101.958 25.8249 101.926 25.6508 101.863C25.4767 101.8 25.3263 101.705 25.1996 101.578L25.4608 101.158C25.6718 101.369 25.9251 101.475 26.2206 101.475C26.4106 101.475 26.5715 101.422 26.7034 101.317C26.8406 101.211 26.9673 101.032 27.0833 100.778L27.2654 100.374L25.4054 96.2172H25.9911L27.5582 99.7568L29.1253 96.2172H29.6793ZM30.4708 94.5068H31.0327V100.382H30.4708V94.5068ZM36.2212 98.474H32.7387C32.7704 98.9068 32.9366 99.2579 33.2374 99.5271C33.5381 99.7911 33.918 99.9231 34.3771 99.9231C34.6356 99.9231 34.873 99.8782 35.0894 99.7885C35.3056 99.6934 35.493 99.5561 35.6513 99.3767L35.9679 99.7409C35.7832 99.9627 35.551 100.132 35.2714 100.248C34.997 100.364 34.6937 100.422 34.3612 100.422C33.9339 100.422 33.554 100.332 33.2215 100.153C32.8944 99.9679 32.6384 99.7145 32.4538 99.3925C32.2691 99.0706 32.1768 98.7063 32.1768 98.2998C32.1768 97.8933 32.2639 97.529 32.438 97.207C32.6173 96.8851 32.86 96.6342 33.1661 96.4548C33.4774 96.2753 33.8256 96.1855 34.2109 96.1855C34.596 96.1855 34.9416 96.2753 35.2477 96.4548C35.5537 96.6342 35.7938 96.8851 35.9679 97.207C36.142 97.5238 36.2291 97.888 36.2291 98.2998L36.2212 98.474ZM34.2109 96.6686C33.8098 96.6686 33.4721 96.798 33.1978 97.0566C32.9287 97.31 32.7756 97.6426 32.7387 98.0543H35.6909C35.6539 97.6426 35.4983 97.31 35.2239 97.0566C34.9548 96.798 34.6171 96.6686 34.2109 96.6686ZM41.969 100.43C41.4202 100.43 40.9243 100.308 40.4811 100.066C40.0431 99.8228 39.6975 99.4876 39.4443 99.06C39.1962 98.6271 39.0723 98.1441 39.0723 97.6109C39.0723 97.0777 39.1962 96.5973 39.4443 96.1697C39.6975 95.7369 40.0458 95.3989 40.489 95.1561C40.9322 94.9134 41.4282 94.7919 41.9769 94.7919C42.3885 94.7919 42.7684 94.8605 43.1166 94.9978C43.4649 95.1351 43.7604 95.3356 44.0031 95.5996L43.6311 95.9718C43.1985 95.5336 42.6524 95.3145 41.9928 95.3145C41.5548 95.3145 41.1565 95.4148 40.7977 95.6154C40.4388 95.8161 40.1566 96.0905 39.9508 96.4389C39.7503 96.7874 39.65 97.178 39.65 97.6109C39.65 98.0437 39.7503 98.4344 39.9508 98.7828C40.1566 99.1312 40.4388 99.4057 40.7977 99.6063C41.1565 99.807 41.5548 99.9072 41.9928 99.9072C42.6576 99.9072 43.2037 99.6855 43.6311 99.2421L44.0031 99.6143C43.7604 99.8782 43.4622 100.081 43.1087 100.224C42.7605 100.361 42.3806 100.43 41.969 100.43ZM47.254 96.1855C47.7764 96.1855 48.1905 96.3387 48.4966 96.6448C48.8079 96.9457 48.9636 97.3865 48.9636 97.9672V100.382H48.4017V98.0226C48.4017 97.5898 48.2934 97.2598 48.0772 97.0328C47.8608 96.8059 47.5521 96.6923 47.1512 96.6923C46.7026 96.6923 46.3464 96.827 46.0827 97.0962C45.8241 97.3602 45.6949 97.727 45.6949 98.1968V100.382H45.1329V94.5068H45.6949V96.9457C45.8478 96.7029 46.0589 96.5154 46.328 96.3835C46.5971 96.2516 46.9058 96.1855 47.254 96.1855ZM54.1295 98.474H50.6471C50.6788 98.9068 50.845 99.2579 51.1457 99.5271C51.4465 99.7911 51.8264 99.9231 52.2854 99.9231C52.5439 99.9231 52.7814 99.8782 52.9977 99.7885C53.2141 99.6934 53.4014 99.5561 53.5597 99.3767L53.8763 99.7409C53.6916 99.9627 53.4595 100.132 53.1798 100.248C52.9055 100.364 52.602 100.422 52.2696 100.422C51.8422 100.422 51.4623 100.332 51.1299 100.153C50.8027 99.9679 50.5469 99.7145 50.3622 99.3925C50.1775 99.0706 50.0852 98.7063 50.0852 98.2998C50.0852 97.8933 50.1722 97.529 50.3464 97.207C50.5257 96.8851 50.7685 96.6342 51.0745 96.4548C51.3858 96.2753 51.7341 96.1855 52.1192 96.1855C52.5044 96.1855 52.8501 96.2753 53.156 96.4548C53.462 96.6342 53.7022 96.8851 53.8763 97.207C54.0504 97.5238 54.1375 97.888 54.1375 98.2998L54.1295 98.474ZM52.1192 96.6686C51.7183 96.6686 51.3805 96.798 51.1062 97.0566C50.8371 97.31 50.684 97.6426 50.6471 98.0543H53.5993C53.5624 97.6426 53.4066 97.31 53.1323 97.0566C52.8632 96.798 52.5256 96.6686 52.1192 96.6686ZM57.4023 96.1855C57.9247 96.1855 58.3389 96.3387 58.6449 96.6448C58.9562 96.9457 59.1119 97.3865 59.1119 97.9672V100.382H58.5499V98.0226C58.5499 97.5898 58.4418 97.2598 58.2254 97.0328C58.0092 96.8059 57.7005 96.6923 57.2994 96.6923C56.851 96.6923 56.4948 96.827 56.2309 97.0962C55.9724 97.3602 55.8431 97.727 55.8431 98.1968V100.382H55.2812V96.2172H55.8194V96.9853C55.9724 96.7319 56.1834 96.5366 56.4525 96.3993C56.727 96.2568 57.0436 96.1855 57.4023 96.1855ZM62.3547 100.422C61.9536 100.422 61.5922 100.332 61.2704 100.153C60.9484 99.9679 60.6951 99.7145 60.5106 99.3925C60.3258 99.0706 60.2335 98.7063 60.2335 98.2998C60.2335 97.8933 60.3258 97.529 60.5106 97.207C60.6951 96.8851 60.9484 96.6342 61.2704 96.4548C61.5922 96.2753 61.9536 96.1855 62.3547 96.1855C62.7556 96.1855 63.117 96.2753 63.439 96.4548C63.7608 96.6342 64.0114 96.8851 64.1909 97.207C64.3755 97.529 64.4679 97.8933 64.4679 98.2998C64.4679 98.7063 64.3755 99.0706 64.1909 99.3925C64.0114 99.7145 63.7608 99.9679 63.439 100.153C63.117 100.332 62.7556 100.422 62.3547 100.422ZM62.3547 99.9231C62.6501 99.9231 62.9139 99.857 63.1461 99.7251C63.3836 99.5878 63.5682 99.3952 63.7001 99.1471C63.832 98.8989 63.898 98.6165 63.898 98.2998C63.898 97.983 63.832 97.7007 63.7001 97.4525C63.5682 97.2044 63.3836 97.0143 63.1461 96.8824C62.9139 96.7451 62.6501 96.6765 62.3547 96.6765C62.0591 96.6765 61.7927 96.7451 61.5553 96.8824C61.3231 97.0143 61.1384 97.2044 61.0013 97.4525C60.8693 97.7007 60.8034 97.983 60.8034 98.2998C60.8034 98.6165 60.8693 98.8989 61.0013 99.1471C61.1384 99.3952 61.3231 99.5878 61.5553 99.7251C61.7927 99.857 62.0591 99.9231 62.3547 99.9231ZM71.6092 96.2172L70.0342 100.382H69.5039L68.1901 96.9695L66.8762 100.382H66.3459L64.7789 96.2172H65.317L66.623 99.7568L67.9605 96.2172H68.4433L69.773 99.7568L71.0947 96.2172H71.6092ZM75.9643 98.474H72.4819C72.5135 98.9068 72.6797 99.2579 72.9805 99.5271C73.2812 99.7911 73.6611 99.9231 74.1202 99.9231C74.3787 99.9231 74.6161 99.8782 74.8325 99.7885C75.0489 99.6934 75.2361 99.5561 75.3944 99.3767L75.711 99.7409C75.5263 99.9627 75.2942 100.132 75.0145 100.248C74.7402 100.364 74.4368 100.422 74.1044 100.422C73.677 100.422 73.2971 100.332 72.9646 100.153C72.6375 99.9679 72.3816 99.7145 72.1969 99.3925C72.0122 99.0706 71.9199 98.7063 71.9199 98.2998C71.9199 97.8933 72.007 97.529 72.1811 97.207C72.3605 96.8851 72.6033 96.6342 72.9092 96.4548C73.2206 96.2753 73.5688 96.1855 73.954 96.1855C74.3391 96.1855 74.6848 96.2753 74.9908 96.4548C75.2968 96.6342 75.5369 96.8851 75.711 97.207C75.8851 97.5238 75.9722 97.888 75.9722 98.2998L75.9643 98.474ZM73.954 96.6686C73.553 96.6686 73.2152 96.798 72.9409 97.0566C72.6718 97.31 72.5187 97.6426 72.4819 98.0543H75.434C75.3971 97.6426 75.2414 97.31 74.967 97.0566C74.6979 96.798 74.3603 96.6686 73.954 96.6686ZM79.3084 100.129C79.2028 100.224 79.071 100.298 78.9127 100.351C78.7596 100.398 78.5986 100.422 78.4299 100.422C78.0394 100.422 77.7386 100.316 77.5276 100.105C77.3165 99.8941 77.211 99.5957 77.211 99.2104V96.6923H76.4671V96.2172H77.211V95.3066H77.773V96.2172H79.0393V96.6923H77.773V99.1787C77.773 99.4269 77.8336 99.6169 77.955 99.7489C78.0816 99.8756 78.261 99.9389 78.4932 99.9389C78.6092 99.9389 78.72 99.9204 78.8256 99.8835C78.9364 99.8466 79.0314 99.7937 79.1105 99.7251L79.3084 100.129ZM82.4525 96.1855C82.9748 96.1855 83.3891 96.3387 83.695 96.6448C84.0064 96.9457 84.162 97.3865 84.162 97.9672V100.382H83.6001V98.0226C83.6001 97.5898 83.4919 97.2598 83.2756 97.0328C83.0592 96.8059 82.7505 96.6923 82.3496 96.6923C81.9011 96.6923 81.545 96.827 81.2811 97.0962C81.0226 97.3602 80.8933 97.727 80.8933 98.1968V100.382H80.3313V94.5068H80.8933V96.9457C81.0463 96.7029 81.2573 96.5154 81.5264 96.3835C81.7955 96.2516 82.1042 96.1855 82.4525 96.1855Z" fill="white"/>
</g>
<defs>
<linearGradient id="paint0_linear" x1="86.3299" y1="0" x2="86.3299" y2="139" gradientUnits="userSpaceOnUse">
<stop offset="0.154014" stop-color="#1AABFF"/>
<stop offset="1" stop-color="white" stop-opacity="0"/>
</linearGradient>
<clipPath id="clip0">
<rect width="174" height="139" fill="white"/>
</clipPath>
</defs>
</svg>
