<svg width="201" height="142" viewBox="0 0 201 142" fill="none" xmlns="http://www.w3.org/2000/svg">
<path d="M159.076 70.7259C159.076 62.9735 149.359 55.6266 134.462 51.0706C137.9 35.8998 136.372 23.8299 129.639 19.9656C128.087 19.0592 126.273 18.6298 124.291 18.6298V23.9491C125.389 23.9491 126.273 24.1638 127.013 24.5693C130.26 26.4299 131.668 33.5144 130.57 42.6265C130.308 44.8687 129.878 47.2302 129.353 49.6394C124.673 48.4944 119.564 47.6118 114.192 47.0394C110.969 42.6265 107.627 38.6191 104.26 35.1126C112.043 27.885 119.349 23.9253 124.315 23.9253V18.606C117.749 18.606 109.155 23.2812 100.464 31.3914C91.774 23.329 83.1791 18.7014 76.6136 18.7014V24.0207C81.5557 24.0207 88.8851 27.9565 96.6683 35.1364C93.3258 38.6429 89.9834 42.6265 86.8081 47.0394C81.4124 47.6118 76.3032 48.4944 71.6238 49.6632C71.0747 47.2779 70.6689 44.9641 70.3824 42.7457C69.2603 33.6337 70.645 26.5492 73.868 24.6648C74.5843 24.2354 75.5154 24.0446 76.6136 24.0446V18.7252C74.6082 18.7252 72.7937 19.1546 71.218 20.061C64.5092 23.9253 63.0051 35.9713 66.4669 51.0945C51.617 55.6743 41.9478 62.9974 41.9478 70.7259C41.9478 78.4783 51.6647 85.8252 66.5624 90.3812C63.1245 105.552 64.6525 117.622 71.3851 121.486C72.9369 122.393 74.7514 122.822 76.7569 122.822C83.3224 122.822 91.9172 118.147 100.608 110.037C109.298 118.099 117.893 122.727 124.458 122.727C126.464 122.727 128.278 122.297 129.854 121.391C136.563 117.527 138.067 105.48 134.605 90.3574C149.407 85.8013 159.076 78.4544 159.076 70.7259ZM127.992 54.8156C127.108 57.8927 126.01 61.0652 124.769 64.2377C123.79 62.3295 122.763 60.4212 121.641 58.5129C120.543 56.6046 119.373 54.744 118.203 52.9312C121.593 53.4321 124.864 54.0523 127.992 54.8156ZM117.057 80.2196C115.195 83.4398 113.285 86.4931 111.303 89.3317C107.746 89.6418 104.141 89.8087 100.512 89.8087C96.907 89.8087 93.3019 89.6418 89.7685 89.3555C87.7869 86.5169 85.8531 83.4875 83.9909 80.2912C82.1764 77.1664 80.529 73.9938 79.025 70.7975C80.5052 67.6011 82.1764 64.4047 83.967 61.2799C85.8292 58.0597 87.7392 55.0064 89.7208 52.1679C93.2781 51.8578 96.8831 51.6908 100.512 51.6908C104.117 51.6908 107.722 51.8578 111.256 52.144C113.237 54.9826 115.171 58.012 117.033 61.2084C118.848 64.3332 120.495 67.5057 121.999 70.7021C120.495 73.8984 118.848 77.0948 117.057 80.2196ZM124.769 77.1186C126.058 80.315 127.156 83.5114 128.063 86.6124C124.936 87.3757 121.641 88.0197 118.227 88.5206C119.397 86.6839 120.567 84.7995 121.665 82.8673C122.763 80.9591 123.79 79.0269 124.769 77.1186ZM100.56 102.57C98.3395 100.28 96.1191 97.7281 93.9227 94.9372C96.0714 95.0326 98.2678 95.1042 100.488 95.1042C102.732 95.1042 104.953 95.0565 107.125 94.9372C104.977 97.7281 102.756 100.28 100.56 102.57ZM82.7971 88.5206C79.4069 88.0197 76.1361 87.3995 73.0086 86.6362C73.8919 83.5591 74.9901 80.3866 76.2316 77.2141C77.2105 79.1223 78.2371 81.0306 79.3592 82.9389C80.4813 84.8472 81.6273 86.7078 82.7971 88.5206ZM100.44 38.8815C102.661 41.1714 104.881 43.7237 107.078 46.5146C104.929 46.4192 102.732 46.3476 100.512 46.3476C98.2678 46.3476 96.0475 46.3953 93.8749 46.5146C96.0236 43.7237 98.244 41.1714 100.44 38.8815ZM82.7733 52.9312C81.6034 54.7679 80.4335 56.6523 79.3353 58.5845C78.2371 60.4927 77.2105 62.401 76.2316 64.3093C74.9424 61.1129 73.8442 57.9166 72.9369 54.8156C76.0645 54.0761 79.3592 53.4321 82.7733 52.9312ZM61.1668 82.7958C52.7152 79.1939 47.2479 74.4709 47.2479 70.7259C47.2479 66.9809 52.7152 62.2341 61.1668 58.656C63.22 57.7734 65.4642 56.9863 67.78 56.2468C69.1409 60.9221 70.9315 65.7882 73.1518 70.7736C70.9553 75.7351 69.1886 80.5774 67.8517 85.2288C65.4881 84.4894 63.2439 83.6784 61.1668 82.7958ZM74.0113 116.882C70.7644 115.022 69.3558 107.937 70.454 98.8254C70.7166 96.5831 71.1463 94.2216 71.6716 91.8124C76.351 92.9574 81.4602 93.84 86.8319 94.4125C90.055 98.8254 93.3974 102.833 96.7637 106.339C88.9806 113.567 81.675 117.527 76.7091 117.527C75.6348 117.503 74.7275 117.288 74.0113 116.882ZM130.642 98.7061C131.764 107.818 130.379 114.903 127.156 116.787C126.44 117.216 125.509 117.407 124.41 117.407C119.468 117.407 112.139 113.471 104.356 106.292C107.698 102.785 111.041 98.8015 114.216 94.3886C119.612 93.8161 124.721 92.9335 129.4 91.7647C129.949 94.1739 130.379 96.4877 130.642 98.7061ZM139.833 82.7958C137.78 83.6784 135.536 84.4655 133.22 85.205C131.859 80.5297 130.069 75.6636 127.848 70.6782C130.045 65.7167 131.812 60.8744 133.149 56.223C135.512 56.9624 137.756 57.7734 139.857 58.656C148.309 62.2579 153.776 66.9809 153.776 70.7259C153.752 74.4709 148.285 79.2178 139.833 82.7958Z" fill="#61DAFB"/>
<path d="M100.488 81.6268C106.514 81.6268 111.399 76.7463 111.399 70.7258C111.399 64.7053 106.514 59.8247 100.488 59.8247C94.4625 59.8247 89.5776 64.7053 89.5776 70.7258C89.5776 76.7463 94.4625 81.6268 100.488 81.6268Z" fill="#61DAFB"/>
</svg>
