<svg width="109" height="109" viewBox="0 0 109 109" fill="none" xmlns="http://www.w3.org/2000/svg">
<g clip-path="url(#clip0)">
<path fill-rule="evenodd" clip-rule="evenodd" d="M84.4471 71.9441L22.2148 109L102.794 103.517L109 22.0396L84.4471 71.9441Z" fill="url(#paint0_linear)"/>
<path fill-rule="evenodd" clip-rule="evenodd" d="M102.926 103.461L95.9998 55.5259L77.1348 80.5057L102.926 103.461Z" fill="url(#paint1_linear)"/>
<path fill-rule="evenodd" clip-rule="evenodd" d="M103.019 103.461L52.2802 99.4668L22.4844 108.895L103.019 103.461Z" fill="url(#paint2_linear)"/>
<path fill-rule="evenodd" clip-rule="evenodd" d="M22.5558 108.906L35.2312 67.2656L7.33887 73.2463L22.5558 108.906Z" fill="url(#paint3_linear)"/>
<path fill-rule="evenodd" clip-rule="evenodd" d="M77.1301 80.6441L65.4671 34.833L32.0898 66.2068L77.1301 80.6441Z" fill="url(#paint4_linear)"/>
<path fill-rule="evenodd" clip-rule="evenodd" d="M106.354 35.4782L74.8034 9.6377L66.0176 38.1207L106.354 35.4782Z" fill="url(#paint5_linear)"/>
<path fill-rule="evenodd" clip-rule="evenodd" d="M91.5993 0.42454L73.043 10.7078L61.3359 0.286621L91.5993 0.42454Z" fill="url(#paint6_linear)"/>
<path fill-rule="evenodd" clip-rule="evenodd" d="M0 87.2141L7.77353 72.9975L1.48539 56.061L0 87.2141Z" fill="url(#paint7_linear)"/>
<path fill-rule="evenodd" clip-rule="evenodd" d="M1.06738 55.5261L7.39404 73.5218L34.8847 67.3369L66.2704 38.0871L75.1277 9.87499L61.181 0L37.4698 8.89852C29.9994 15.8662 15.5032 29.6525 14.9805 29.9118C14.4634 30.1766 5.40802 47.3393 1.06738 55.5261Z" fill="white"/>
<path fill-rule="evenodd" clip-rule="evenodd" d="M23.282 23.1979C39.4727 7.09997 60.3452 -2.41091 68.3553 5.6932C76.3604 13.7973 67.8712 33.4921 51.6804 49.5845C35.4897 65.6769 14.8758 75.7118 6.87121 67.6077C-1.13888 59.5091 7.09127 39.2902 23.282 23.1979Z" fill="url(#paint8_linear)"/>
<path fill-rule="evenodd" clip-rule="evenodd" d="M22.5557 108.89L35.132 67.1167L76.8989 80.5721C61.7974 94.7722 45.0015 106.777 22.5557 108.89Z" fill="url(#paint9_linear)"/>
<path fill-rule="evenodd" clip-rule="evenodd" d="M66.3252 38.0048L77.0475 80.5942C89.6623 67.2933 100.984 52.9938 106.529 35.3071L66.3252 38.0048Z" fill="url(#paint10_linear)"/>
<path fill-rule="evenodd" clip-rule="evenodd" d="M106.42 35.5223C110.711 22.5359 111.701 3.90578 91.4666 0.446777L74.8633 9.64321L106.42 35.5223Z" fill="url(#paint11_linear)"/>
<path fill-rule="evenodd" clip-rule="evenodd" d="M0 87.0269C0.594155 108.46 16.0147 108.779 22.5834 108.968L7.41044 73.4336L0 87.0269Z" fill="#9E1209"/>
<path fill-rule="evenodd" clip-rule="evenodd" d="M66.3857 38.0713C76.0793 44.046 95.6154 56.0449 96.0115 56.2656C96.6272 56.6131 104.434 43.064 106.206 35.4067L66.3857 38.0713Z" fill="url(#paint12_radial)"/>
<path fill-rule="evenodd" clip-rule="evenodd" d="M35.1152 67.1167L51.9276 99.6435C61.8687 94.237 69.6533 87.65 76.7831 80.5941L35.1152 67.1167Z" fill="url(#paint13_radial)"/>
<path fill-rule="evenodd" clip-rule="evenodd" d="M7.34404 73.4778L4.96191 101.922C9.45659 108.079 15.6402 108.614 22.1264 108.134C17.4337 96.422 8.05922 73.0034 7.34404 73.4778Z" fill="url(#paint14_linear)"/>
<path fill-rule="evenodd" clip-rule="evenodd" d="M74.7646 9.71501L108.164 14.4153C106.381 6.84079 100.907 1.95294 91.5771 0.424805L74.7646 9.71501Z" fill="url(#paint15_linear)"/>
</g>
<defs>
<linearGradient id="paint0_linear" x1="95.7656" y1="118.913" x2="72.6741" y2="78.257" gradientUnits="userSpaceOnUse">
<stop stop-color="#FB7655"/>
<stop offset="0.41" stop-color="#E42B1E"/>
<stop offset="0.99" stop-color="#990000"/>
<stop offset="1" stop-color="#990000"/>
</linearGradient>
<linearGradient id="paint1_linear" x1="107.22" y1="84.7137" x2="77.534" y2="64.8479" gradientUnits="userSpaceOnUse">
<stop stop-color="#871101"/>
<stop offset="0.99" stop-color="#911209"/>
<stop offset="1" stop-color="#911209"/>
</linearGradient>
<linearGradient id="paint2_linear" x1="83.5093" y1="120.146" x2="53.8243" y2="100.281" gradientUnits="userSpaceOnUse">
<stop stop-color="#871101"/>
<stop offset="0.99" stop-color="#911209"/>
<stop offset="1" stop-color="#911209"/>
</linearGradient>
<linearGradient id="paint3_linear" x1="21.2885" y1="70.2781" x2="25.9075" y2="100.214" gradientUnits="userSpaceOnUse">
<stop stop-color="white"/>
<stop offset="0.23" stop-color="#E57252"/>
<stop offset="0.46" stop-color="#DE3B20"/>
<stop offset="0.99" stop-color="#A60003"/>
<stop offset="1" stop-color="#A60003"/>
</linearGradient>
<linearGradient id="paint4_linear" x1="52.8868" y1="42.3222" x2="54.5889" y2="72.8772" gradientUnits="userSpaceOnUse">
<stop stop-color="white"/>
<stop offset="0.23" stop-color="#E4714E"/>
<stop offset="0.56" stop-color="#BE1A0D"/>
<stop offset="0.99" stop-color="#A80D00"/>
<stop offset="1" stop-color="#A80D00"/>
</linearGradient>
<linearGradient id="paint5_linear" x1="80.9281" y1="14.0792" x2="86.0224" y2="35.9719" gradientUnits="userSpaceOnUse">
<stop stop-color="white"/>
<stop offset="0.18" stop-color="#E46342"/>
<stop offset="0.4" stop-color="#C82410"/>
<stop offset="0.99" stop-color="#A80D00"/>
<stop offset="1" stop-color="#A80D00"/>
</linearGradient>
<linearGradient id="paint6_linear" x1="65.4544" y1="6.36691" x2="87.3152" y2="-4.53318" gradientUnits="userSpaceOnUse">
<stop stop-color="white"/>
<stop offset="0.54" stop-color="#C81F11"/>
<stop offset="0.99" stop-color="#BF0905"/>
<stop offset="1" stop-color="#BF0905"/>
</linearGradient>
<linearGradient id="paint7_linear" x1="2.14738" y1="62.6451" x2="3.95456" y2="80.6884" gradientUnits="userSpaceOnUse">
<stop stop-color="white"/>
<stop offset="0.31" stop-color="#DE4024"/>
<stop offset="0.99" stop-color="#BF190B"/>
<stop offset="1" stop-color="#BF190B"/>
</linearGradient>
<linearGradient id="paint8_linear" x1="-10.2084" y1="85.5672" x2="74.5191" y2="-1.31448" gradientUnits="userSpaceOnUse">
<stop stop-color="#BD0012"/>
<stop offset="0.07" stop-color="white"/>
<stop offset="0.17" stop-color="white"/>
<stop offset="0.27" stop-color="#C82F1C"/>
<stop offset="0.33" stop-color="#820C01"/>
<stop offset="0.46" stop-color="#A31601"/>
<stop offset="0.72" stop-color="#B31301"/>
<stop offset="0.99" stop-color="#E82609"/>
<stop offset="1" stop-color="#E82609"/>
</linearGradient>
<linearGradient id="paint9_linear" x1="54.5051" y1="94.3547" x2="29.049" y2="88.0893" gradientUnits="userSpaceOnUse">
<stop stop-color="#8C0C01"/>
<stop offset="0.54" stop-color="#990C00"/>
<stop offset="0.99" stop-color="#A80D0E"/>
<stop offset="1" stop-color="#A80D0E"/>
</linearGradient>
<linearGradient id="paint10_linear" x1="98.2148" y1="63.7265" x2="75.5516" y2="43.4705" gradientUnits="userSpaceOnUse">
<stop stop-color="#7E110B"/>
<stop offset="0.99" stop-color="#9E0C00"/>
<stop offset="1" stop-color="#9E0C00"/>
</linearGradient>
<linearGradient id="paint11_linear" x1="106.521" y1="26.4456" x2="95.2266" y2="14.4045" gradientUnits="userSpaceOnUse">
<stop stop-color="#79130D"/>
<stop offset="0.99" stop-color="#9E120B"/>
<stop offset="1" stop-color="#9E120B"/>
</linearGradient>
<radialGradient id="paint12_radial" cx="0" cy="0" r="1" gradientUnits="userSpaceOnUse" gradientTransform="translate(79.1284 43.7967) scale(27.7039 27.781)">
<stop stop-color="#A80D00"/>
<stop offset="0.99" stop-color="#7E0E08"/>
<stop offset="1" stop-color="#7E0E08"/>
</radialGradient>
<radialGradient id="paint13_radial" cx="0" cy="0" r="1" gradientUnits="userSpaceOnUse" gradientTransform="translate(40.761 80.4071) scale(36.8287 36.9312)">
<stop stop-color="#A30C00"/>
<stop offset="0.99" stop-color="#800E08"/>
<stop offset="1" stop-color="#800E08"/>
</radialGradient>
<linearGradient id="paint14_linear" x1="14.6719" y1="108.866" x2="5.44779" y2="77.658" gradientUnits="userSpaceOnUse">
<stop stop-color="#8B2114"/>
<stop offset="0.43" stop-color="#9E100A"/>
<stop offset="0.99" stop-color="#B3100C"/>
<stop offset="1" stop-color="#B3100C"/>
</linearGradient>
<linearGradient id="paint15_linear" x1="85.075" y1="5.40527" x2="105.668" y2="14.47" gradientUnits="userSpaceOnUse">
<stop stop-color="#B31000"/>
<stop offset="0.44" stop-color="#910F08"/>
<stop offset="0.99" stop-color="#791C12"/>
<stop offset="1" stop-color="#791C12"/>
</linearGradient>
<clipPath id="clip0">
<rect width="109" height="109" fill="white"/>
</clipPath>
</defs>
</svg>
