<svg width="205" height="77" viewBox="0 0 205 77" fill="none" xmlns="http://www.w3.org/2000/svg">
<path fill-rule="evenodd" clip-rule="evenodd" d="M175.871 64.3322V73.3238H192.181C195.523 73.3238 201.259 70.8896 201.458 64.0838V60.6064C201.458 54.7941 196.67 51.3664 192.181 51.3664H184.051V47.1935H200.162V38.1522H184.699C180.709 38.1522 175.372 41.4309 175.372 47.5412V50.6709C175.372 56.7812 180.659 59.9109 184.699 59.9109C195.922 59.9606 182.006 59.9109 192.381 59.9109V64.2825L175.871 64.3322ZM88.484 62.1464C88.484 62.1464 97.2127 61.4012 97.2127 50.1741C97.2127 38.947 86.6385 37.9038 86.6385 37.9038H67.585V73.3238H77.1616V64.7793L85.4414 73.3238H99.6069L88.484 62.1464ZM84.793 54.8935H77.1616V46.7961H84.8429C84.8429 46.7961 86.9876 47.5909 86.9876 50.8199C86.9876 54.049 84.793 54.8935 84.793 54.8935ZM120.855 38.1522H111.129C104.196 38.1522 101.851 44.4116 101.851 47.3922V73.3238H111.578V67.1141H120.705V73.3238H130.132V47.3922C130.132 39.8412 123.249 38.1522 120.855 38.1522ZM120.705 57.0793H111.528V48.4851C111.528 48.4851 111.528 46.5477 114.57 46.5477H117.912C120.606 46.5477 120.656 48.4851 120.656 48.4851V57.0793H120.705Z" fill="#CC0000"/>
<path d="M144.697 38.1523H134.572V73.324H144.697V38.1523Z" fill="#CC0000"/>
<path fill-rule="evenodd" clip-rule="evenodd" d="M158.912 64.233V38.1523H148.837V64.233V73.324H158.912H172.529V64.233H158.912Z" fill="#CC0000"/>
<path fill-rule="evenodd" clip-rule="evenodd" d="M7.48193 73.3236H46.8858C46.8858 73.3236 39.3542 39.0958 64.2934 25.2358C69.7301 22.6029 87.0379 12.7668 115.369 33.6313C116.267 32.8862 117.115 32.29 117.115 32.29C117.115 32.29 91.1778 6.50745 62.2982 9.38874C47.7836 10.6804 29.9272 23.8449 19.4527 41.232C8.97828 58.6191 7.48193 73.3236 7.48193 73.3236Z" fill="#CC0000"/>
<path fill-rule="evenodd" clip-rule="evenodd" d="M7.48193 73.3236H46.8858C46.8858 73.3236 39.3542 39.0958 64.2934 25.2358C69.7301 22.6029 87.0379 12.7668 115.369 33.6313C116.267 32.8862 117.115 32.29 117.115 32.29C117.115 32.29 91.1778 6.50745 62.2982 9.38874C47.7836 10.6804 29.9272 23.8449 19.4527 41.232C8.97828 58.6191 7.48193 73.3236 7.48193 73.3236Z" fill="#CC0000"/>
<path fill-rule="evenodd" clip-rule="evenodd" d="M7.48193 73.324H46.8858C46.8858 73.324 39.3542 39.0963 64.2934 25.2363C69.7301 22.6034 87.0379 12.7672 115.369 33.6318C116.267 32.8866 117.115 32.2905 117.115 32.2905C117.115 32.2905 91.1778 6.50787 62.2982 9.38917C47.7338 10.6808 29.8773 23.8453 19.4029 41.2324C8.92841 58.6195 7.48193 73.324 7.48193 73.324ZM89.5817 12.1711L89.7812 8.84271C89.3323 8.59433 88.0853 7.9982 84.943 7.104L84.7435 10.3827C86.3895 10.9292 87.9856 11.5253 89.5817 12.1711Z" fill="#CC0000"/>
<path fill-rule="evenodd" clip-rule="evenodd" d="M84.843 22.7025L84.6435 25.8322C86.2895 25.8819 87.9355 26.0806 89.5815 26.4283L89.781 23.3483C88.0851 23.0006 86.4391 22.8019 84.843 22.7025ZM66.388 7.20317H66.8868L65.8893 4.17285C64.343 4.17285 62.7469 4.27221 61.1009 4.47092L62.0486 7.40188C63.4951 7.25285 64.9416 7.20317 66.388 7.20317ZM68.7822 25.4845L69.9294 28.9122C71.3759 28.2167 72.8223 27.6206 74.2688 27.1735L73.1715 23.8948C71.4756 24.3916 70.0292 24.938 68.7822 25.4845ZM46.1374 12.4193L43.8929 8.99156C42.646 9.63737 41.3491 10.3329 40.0024 11.1277L42.2968 14.6051C43.5936 13.8103 44.8406 13.0651 46.1374 12.4193ZM56.3625 34.7741L58.7567 38.3509C59.6046 37.109 60.6022 35.9664 61.6995 34.8238L59.455 31.4458C58.3078 32.489 57.2603 33.6316 56.3625 34.7741ZM49.1301 50.7703L53.1703 53.9496C53.3698 52.0122 53.7189 50.0748 54.2177 48.1374L50.6265 45.3058C49.9781 47.1438 49.5292 48.9819 49.1301 50.7703ZM27.2834 27.1735L23.7421 24.0935C22.4452 25.3354 21.1983 26.5774 20.0511 27.8193L23.8917 31.098C24.9391 29.7567 26.0863 28.4154 27.2834 27.1735ZM12.2202 49.3793L6.48415 47.2929C5.53646 49.429 4.48902 51.9128 3.99023 53.2541L9.72624 55.3406C10.3747 53.6516 11.4221 51.2174 12.2202 49.3793ZM48.382 63.3883C48.4817 66.0212 48.7311 68.1574 48.9805 69.6477L54.9659 71.7838C54.517 69.8464 54.0681 67.6606 53.7688 65.3258L48.382 63.3883Z" fill="#CC0000"/>
</svg>
